<?xml version="1.0" encoding="UTF-8" standalone="no"?>
<!-- Created with Inkscape (http://www.inkscape.org/) -->

<svg
   xmlns:dc="http://purl.org/dc/elements/1.1/"
   xmlns:cc="http://creativecommons.org/ns#"
   xmlns:rdf="http://www.w3.org/1999/02/22-rdf-syntax-ns#"
   xmlns:svg="http://www.w3.org/2000/svg"
   xmlns="http://www.w3.org/2000/svg"
   xmlns:sodipodi="http://sodipodi.sourceforge.net/DTD/sodipodi-0.dtd"
   xmlns:inkscape="http://www.inkscape.org/namespaces/inkscape"
   id="svg2"
   version="1.1"
   inkscape:version="0.48.5 r10040"
   width="96.182503"
   height="22"
   xml:space="preserve"
   sodipodi:docname="Gensler_AR11_11_16_2011.pdf"><metadata
     id="metadata8"><rdf:RDF><cc:Work
         rdf:about=""><dc:format>image/svg+xml</dc:format><dc:type
           rdf:resource="http://purl.org/dc/dcmitype/StillImage" /><dc:title></dc:title></cc:Work></rdf:RDF></metadata><defs
     id="defs6"><clipPath
       clipPathUnits="userSpaceOnUse"
       id="clipPath86"><path
         d="m 0,0 1024,0 0,662 L 0,662 0,0 z"
         id="path88"
         inkscape:connector-curvature="0" /></clipPath><clipPath
       clipPathUnits="userSpaceOnUse"
       id="clipPath94"><path
         d="m 633,178.734 118.386,0 0,-62.123 -118.386,0 0,62.123 z"
         id="path96"
         inkscape:connector-curvature="0" /></clipPath><clipPath
       clipPathUnits="userSpaceOnUse"
       id="clipPath112"><path
         d="m 871.757,192 136.083,0 0,-74.032 -136.083,0 0,74.032 z"
         id="path114"
         inkscape:connector-curvature="0" /></clipPath><clipPath
       clipPathUnits="userSpaceOnUse"
       id="clipPath116"><path
         d="m 880.757,118.967 110.661,0 0,72.032 -110.661,0 0,-72.032 z"
         id="path118"
         inkscape:connector-curvature="0" /></clipPath><clipPath
       clipPathUnits="userSpaceOnUse"
       id="clipPath138"><path
         d="m 747.267,178.823 131.323,0 0,-50.547 -131.323,0 0,50.547 z"
         id="path140"
         inkscape:connector-curvature="0" /></clipPath><clipPath
       clipPathUnits="userSpaceOnUse"
       id="clipPath142"><path
         d="m 763.669,134.906 105.921,0 0,42.916 -105.921,0 0,-42.916 z"
         id="path144"
         inkscape:connector-curvature="0" /></clipPath><clipPath
       clipPathUnits="userSpaceOnUse"
       id="clipPath188"><path
         d="m 86.32,16.285 168.993,0 0,254.715 -168.993,0 0,-254.715 z"
         id="path190"
         inkscape:connector-curvature="0" /></clipPath><clipPath
       clipPathUnits="userSpaceOnUse"
       id="clipPath220"><path
         d="m 0,0 1024,0 0,662 L 0,662 0,0 z"
         id="path222"
         inkscape:connector-curvature="0" /></clipPath><clipPath
       clipPathUnits="userSpaceOnUse"
       id="clipPath270"><path
         d="m 0,0 1024,0 0,662 L 0,662 0,0 z"
         id="path272"
         inkscape:connector-curvature="0" /></clipPath><clipPath
       clipPathUnits="userSpaceOnUse"
       id="clipPath280"><path
         d="M 0,662 1024,662 1024,0 0,0 0,662 z"
         id="path282"
         inkscape:connector-curvature="0" /></clipPath><clipPath
       clipPathUnits="userSpaceOnUse"
       id="clipPath304"><path
         d="m 0,0 1024,0 0,662 L 0,662 0,0 z"
         id="path306"
         inkscape:connector-curvature="0" /></clipPath></defs><sodipodi:namedview
     pagecolor="#ffffff"
     bordercolor="#666666"
     borderopacity="1"
     objecttolerance="10"
     gridtolerance="10"
     guidetolerance="10"
     inkscape:pageopacity="0"
     inkscape:pageshadow="2"
     inkscape:window-width="1920"
     inkscape:window-height="1017"
     id="namedview4"
     showgrid="false"
     fit-margin-top="1"
     fit-margin-left="1"
     fit-margin-bottom="1"
     fit-margin-right="1"
     inkscape:zoom="4.563142"
     inkscape:cx="36.396803"
     inkscape:cy="9.751686"
     inkscape:window-x="-8"
     inkscape:window-y="-8"
     inkscape:window-maximized="1"
     inkscape:current-layer="g302" /><g
     id="g10"
     inkscape:groupmode="layer"
     inkscape:label="Gensler_AR11_11_16_2011"
     transform="matrix(1.25,0,0,-1.25,-333.76128,457.89606)"><g
       id="g266"><g
         id="g268"
         clip-path="url(#clipPath270)"><g
           id="g274"><g
             id="g276"><g
               id="g278"
               clip-path="url(#clipPath280)"><path
                 d="m 40,614 80,0 0,20 -80,0 0,-20 z"
                 style="fill:#ffffff;fill-opacity:1;fill-rule:nonzero;stroke:none"
                 id="path284"
                 inkscape:connector-curvature="0" /><g
                 id="g286"
                 transform="translate(525.4985,635.0001)"><path
                   d="M 0,0 103.446,0"
                   style="fill:none;stroke:#ee3224;stroke-width:1;stroke-linecap:round;stroke-linejoin:round;stroke-miterlimit:4;stroke-opacity:1;stroke-dasharray:0, 2.998;stroke-dashoffset:0"
                   id="path288"
                   inkscape:connector-curvature="0" /></g><g
                 id="g290"
                 transform="translate(522.5,635.0001)"><path
                   d="m 0,0 0,0 m 107.944,0 0,0"
                   style="fill:none;stroke:#ee3224;stroke-width:1;stroke-linecap:round;stroke-linejoin:round;stroke-miterlimit:4;stroke-opacity:1;stroke-dasharray:none"
                   id="path292"
                   inkscape:connector-curvature="0" /></g></g></g></g></g></g><path
       d="m 321.79532,349.87995 -3.473,0 0,15.552 3.473,0 0,-15.552 z"
       style="fill:#ee3224;fill-opacity:1;fill-rule:nonzero;stroke:none"
       id="path298"
       inkscape:connector-curvature="0" /><g
       id="g300"><g
         id="g302"
         clip-path="url(#clipPath304)"
         transform="translate(225.80932,-266.48305)"><g
           id="g308"
           transform="translate(116.8357,624.5436)"><path
             d="m 0,0 c -0.141,0.046 -0.777,0.202 -1.345,0.202 -1.336,0 -2.076,-0.93 -2.219,-1.105 l 0,-7.277 -3.403,0 0,11.048 3.262,0 0.043,-1.434 c 0.565,0.963 1.535,1.733 3.149,1.733 0.356,0 0.721,-0.047 1.023,-0.122 L 0,0 z"
             style="fill:#ee3224;fill-opacity:1;fill-rule:nonzero;stroke:none"
             id="path310"
             inkscape:connector-curvature="0" /></g><g
           id="g312"
           transform="translate(85.8743,616.0092)"><path
             d="m 0,0 c -2.745,0 -4.422,0.861 -4.54,0.92 l 1.082,2.397 c 0.116,-0.069 1.402,-0.872 3.01,-0.872 1.278,0 1.8,0.466 1.8,0.945 0,0.513 -0.376,0.729 -1.498,1.081 -2.427,0.76 -3.803,1.77 -3.803,3.734 0,1.793 1.467,3.535 4.434,3.535 2.641,0 4.282,-0.86 4.469,-0.96 L 3.938,8.457 C 3.841,8.515 2.657,9.298 1.147,9.298 0.158,9.298 -0.262,8.891 -0.262,8.399 -0.262,7.767 0.309,7.533 1.499,7.172 4.518,6.255 5.225,4.997 5.225,3.578 5.225,1.73 3.636,0 0,0"
             style="fill:#ee3224;fill-opacity:1;fill-rule:nonzero;stroke:none"
             id="path314"
             inkscape:connector-curvature="0" /></g><g
           id="g316"
           transform="translate(76.9684,616.3626)"><path
             d="m 0,0 0,7.198 c 0,0.796 -0.343,1.475 -1.439,1.475 -0.803,0 -1.513,-0.685 -1.658,-0.812 l 0,-7.861 -3.405,0 0,11.048 3.271,0 0.034,-1.346 c 0.153,0.207 1.157,1.69 2.956,1.69 2.529,0 3.652,-1.793 3.652,-3.89 L 3.411,0 0,0 z"
             style="fill:#ee3224;fill-opacity:1;fill-rule:nonzero;stroke:none"
             id="path318"
             inkscape:connector-curvature="0" /></g><g
           id="g320"
           transform="translate(97.5332,621.8869)"><path
             d="m 0,0 c 0,3.662 2.384,5.87 5.389,5.87 3.096,0 5.398,-2.299 5.398,-5.87 0,-0.518 -0.047,-0.86 -0.067,-1.043 l -7.247,0 c 0.052,-1.14 0.811,-2.419 2.76,-2.419 1.571,0 2.763,0.819 2.855,0.876 l 1.132,-2.25 C 9.959,-4.981 8.201,-5.871 5.889,-5.871 2.291,-5.871 0,-3.666 0,0 m 7.343,1.095 c 0,1.346 -0.712,2.366 -1.946,2.366 -1.32,0 -1.953,-1.12 -1.953,-2.366 l 3.899,0 z"
             style="fill:#ee3224;fill-opacity:1;fill-rule:nonzero;stroke:none"
             id="path322"
             inkscape:connector-curvature="0" /></g><g
           id="g324"
           transform="translate(58.1316,621.8869)"><path
             d="m 0,0 c 0,3.662 2.384,5.87 5.389,5.87 3.096,0 5.398,-2.299 5.398,-5.87 0,-0.518 -0.047,-0.86 -0.067,-1.043 l -7.247,0 c 0.052,-1.14 0.811,-2.419 2.761,-2.419 1.57,0 2.761,0.819 2.854,0.876 l 1.131,-2.25 C 9.959,-4.981 8.2,-5.871 5.889,-5.871 2.29,-5.871 0,-3.666 0,0 m 7.343,1.095 c 0,1.346 -0.712,2.366 -1.947,2.366 -1.319,0 -1.952,-1.12 -1.952,-2.366 l 3.899,0 z"
             style="fill:#ee3224;fill-opacity:1;fill-rule:nonzero;stroke:none"
             id="path326"
             inkscape:connector-curvature="0" /></g><g
           id="g328"
           transform="translate(53.4637,617.7419)"><path
             d="m 0,0 c -0.12,-0.124 -1.549,-1.742 -4.29,-1.742 -3.715,0 -7.174,3.066 -7.174,8 0,4.828 3.244,8 7.731,8 4.329,0 5.88,-2.886 6.185,-3.36 L -0.402,9.119 c -0.179,0.295 -1.127,2.091 -3.342,2.091 -2.388,0 -3.946,-2.006 -3.946,-4.952 0,-2.795 1.42,-4.951 3.946,-4.951 2.305,0 3.461,1.898 3.623,3.401 l -3.62,0 0,2.38 6.86,0 0,-8.466 -2.962,0 L 0.029,0 0,0 z"
             style="fill:#ee3224;fill-opacity:1;fill-rule:nonzero;stroke:none"
             id="path330"
             inkscape:connector-curvature="0" /></g></g></g></g></svg>