<?xml version="1.0" encoding="UTF-8" standalone="no"?>
<svg
   xmlns:dc="http://purl.org/dc/elements/1.1/"
   xmlns:cc="http://creativecommons.org/ns#"
   xmlns:rdf="http://www.w3.org/1999/02/22-rdf-syntax-ns#"
   xmlns:svg="http://www.w3.org/2000/svg"
   xmlns="http://www.w3.org/2000/svg"
   xmlns:sodipodi="http://sodipodi.sourceforge.net/DTD/sodipodi-0.dtd"
   xmlns:inkscape="http://www.inkscape.org/namespaces/inkscape"
   width="260"
   height="77.421967"
   viewBox="0 0 260 77.421967"
   version="1.1"
   id="svg7"
   sodipodi:docname="Nikken Sekkei company logo.svg"
   inkscape:version="0.92.1 r15371">
  <metadata
     id="metadata11">
    <rdf:RDF>
      <cc:Work
         rdf:about="">
        <dc:format>image/svg+xml</dc:format>
        <dc:type
           rdf:resource="http://purl.org/dc/dcmitype/StillImage" />
        <dc:title></dc:title>
      </cc:Work>
    </rdf:RDF>
  </metadata>
  <sodipodi:namedview
     pagecolor="#ffffff"
     bordercolor="#666666"
     borderopacity="1"
     objecttolerance="10"
     gridtolerance="10"
     guidetolerance="10"
     inkscape:pageopacity="0"
     inkscape:pageshadow="2"
     inkscape:window-width="1280"
     inkscape:window-height="972"
     id="namedview9"
     showgrid="false"
     fit-margin-top="5"
     fit-margin-bottom="5"
     fit-margin-right="5"
     fit-margin-left="5"
     inkscape:zoom="1"
     inkscape:cx="105"
     inkscape:cy="31.969"
     inkscape:window-x="-8"
     inkscape:window-y="-8"
     inkscape:window-maximized="1"
     inkscape:current-layer="svg7" />
  <defs
     id="defs4">
    <style
       id="style2">
      .cls-1 {
        fill-rule: evenodd;
      }
    </style>
  </defs>
  <path
     id="logo_nikken_01.svg"
     class="cls-1"
     d="M 43.838252,41.449612 V 5.484978 H 39.21346 V 34.008697 L 5,5 A 14.523096,14.523096 0 0 1 5.3062362,7.773625 V 43.733259 H 9.9310281 V 15.21829 L 44.146988,44.225737 a 14.554345,14.554345 0 0 1 -0.308736,-2.776125 m 18.22293,2.283647 h 4.624792 V 5.484978 H 62.061182 Z M 117.83867,42.16208 96.229645,23.846654 116.0325,7.058657 a 14.843082,14.843082 0 0 1 2.3274,-1.571179 h -4.98978 a 6.1884715,6.1884715 0 0 0 -3.77608,1.242444 L 89.531196,23.742909 V 5.484978 h -4.624792 v 38.248281 h 4.624792 V 24.455377 l 21.277794,18.040438 a 6.199721,6.199721 0 0 0 3.77733,1.242444 h 5.57725 a 14.624342,14.624342 0 0 1 -2.3249,-1.572429 m 64.20211,-16.404262 h 16.18427 L 199.475,21.93549 H 182.03828 V 9.3110561 h 18.49917 l 1.24994,-3.8260781 h -24.3739 v 38.248281 h 23.12396 l 1.24994,-3.824828 H 182.03828 V 25.760318 Z m 72.65048,15.690544 V 5.484978 h -4.62479 V 34.008697 L 215.85301,5 a 14.523096,14.523096 0 0 1 0.30624,2.773625 v 35.959634 h 4.62479 V 15.21829 L 255,44.225737 a 14.554345,14.554345 0 0 1 -0.30874,-2.776125 M 164.09284,42.16458 142.48631,23.846654 162.28917,7.058657 a 14.828083,14.828083 0 0 1 2.32865,-1.573679 h -4.98728 a 6.1947212,6.1947212 0 0 0 -3.77733,1.242444 L 135.78536,23.742909 V 5.484978 h -4.62479 v 38.248281 h 4.62479 V 24.455377 l 21.27905,18.040438 a 6.199721,6.199721 0 0 0 3.77733,1.242444 h 5.576 a 14.679339,14.679339 0 0 1 -2.3249,-1.572429 M 5.3062362,59.04007 H 10.99973 v 1.12495 H 6.5286812 v 3.237354 h 4.3385548 v 1.124949 H 6.5286812 v 4.279808 H 10.99973 V 69.93208 H 5.3062362 V 59.03757 Z m 11.2857418,0 h 1.398687 l 2.24115,4.103566 2.242399,-4.103566 h 1.399937 l -2.968617,5.261013 3.249854,5.637247 h -1.406187 l -2.519886,-4.482299 -2.518637,4.482299 h -1.398687 l 3.249854,-5.637247 z M 31.255069,69.93833 H 30.033873 V 59.03757 h 1.804919 a 4.66604,4.66604 0 0 1 2.722378,0.576224 2.999865,2.999865 0 0 1 1.237444,2.486138 3.0523626,3.0523626 0 0 1 -1.048703,2.342395 3.9760711,3.9760711 0 0 1 -2.604883,0.722468 h -0.889959 v 4.771035 z m 0,-5.898485 h 0.816213 c 1.353689,0 2.499887,-0.404982 2.499887,-1.966161 0,-1.77742 -1.441185,-1.907414 -2.867371,-1.907414 h -0.452479 v 3.874825 z M 41.288367,59.04007 h 5.693494 v 1.12495 h -4.469799 v 3.237354 h 4.339805 v 1.124949 h -4.339805 v 4.279808 h 4.469799 V 69.93208 H 41.288367 V 59.03757 Z M 54.219035,69.93833 H 52.99784 V 59.03757 h 1.587429 c 2.081156,0 4.017319,0.548726 4.017319,2.999865 A 2.8561215,2.8561215 0 0 1 55.852712,65.0448 l 3.499842,4.88603 h -1.499932 l -3.319851,-4.784785 h -0.306236 v 4.784785 z m 0,-5.854737 h 0.374983 c 1.381188,0 2.779875,-0.259988 2.779875,-1.951162 0,-1.791169 -1.32494,-1.966161 -2.794874,-1.966161 h -0.364984 v 3.917323 z M 66.073502,69.93708 H 64.849807 V 59.03632 h 1.223695 v 10.89826 z m 6.597203,-10.89701 h 5.692244 v 1.12495 H 73.89315 v 3.237354 h 4.338555 v 1.124949 H 73.89315 v 4.279808 h 4.469799 V 69.93208 H 72.670705 V 59.03757 Z m 11.77947,-0.463729 8.560865,8.90085 V 59.03757 h 1.223694 V 70.425808 L 85.67387,61.539958 V 69.93583 H 84.450175 V 58.573841 Z m 24.157665,2.846122 a 4.7197876,4.7197876 0 0 0 -3.34735,-1.443685 4.5097971,4.5097971 0 0 0 0.0275,9.018344 4.8260328,4.8260328 0 0 0 3.31985,-1.446185 v 1.499933 a 5.6509957,5.6509957 0 1 1 -3.27735,-10.203291 5.3347599,5.3347599 0 0 1 3.27735,1.068702 v 1.499932 z m 6.21972,-2.383643 h 5.69224 v 1.12495 H 116.05 v 3.237354 h 4.33856 v 1.124949 H 116.05 v 4.281058 h 4.4698 v 1.124949 h -5.69224 V 59.03757 Z m 11.69197,9.683314 -1.64492,3.699834 -0.78622,-0.314986 1.35369,-3.757331 z m 9.68332,1.213696 h -1.2212 V 59.03632 h 1.2212 v 10.89826 z m 6.6697,-11.360739 8.56086,8.90085 V 59.03757 h 1.2237 v 11.388238 l -8.56087,-8.88585 V 69.93583 H 142.8688 V 58.573841 Z m 19.35287,11.360739 h -1.22369 v -9.77081 h -2.64988 v -1.12495 h 6.55345 v 1.12495 h -2.67988 z m 8.51962,-10.89701 h 5.6935 v 1.12495 h -4.47105 v 3.237354 h 4.33855 v 1.124949 h -4.33855 v 4.281058 h 4.47105 v 1.124949 h -5.696 V 59.03757 Z m 21.91402,5.419756 a 5.1535181,5.1535181 0 0 1 -1.1362,3.843577 5.443505,5.443505 0 0 1 -4.06232,1.821168 5.6372463,5.6372463 0 1 1 4.71729,-8.918348 l -0.88621,0.824963 a 4.4722987,4.4722987 0 0 0 -3.77233,-2.052408 4.5385458,4.5385458 0 0 0 -4.4848,4.553545 4.3748031,4.3748031 0 0 0 1.28119,3.077362 4.6247919,4.6247919 0 0 0 3.11611,1.387437 3.756081,3.756081 0 0 0 3.91732,-3.411096 h -3.2611 v -1.12495 h 4.57105 z m 7.33217,5.477254 h -1.2237 V 59.03757 h 1.58743 c 2.08241,0 4.01857,0.548726 4.01857,2.999865 a 2.8573714,2.8573714 0 0 1 -2.74988,3.007365 l 3.49984,4.88603 h -1.49993 l -3.31985,-4.784785 h -0.31248 v 4.784785 z m 0,-5.854737 h 0.37498 c 1.38244,0 2.77987,-0.259988 2.77987,-1.951162 0,-1.791169 -1.32369,-1.966161 -2.79487,-1.966161 h -0.35998 z m 11.59072,2.759876 -1.32619,3.093611 h -1.33869 l 5.06728,-11.418236 4.93602,11.418236 h -1.35494 l -1.29494,-3.093611 z m 2.3749,-5.492253 -1.87492,4.364804 h 3.71233 z m 12.56693,8.585864 h -1.22244 v -9.76956 h -2.64863 v -1.12495 h 6.5522 v 1.12495 h -2.68988 v 9.77081 z m 8.30213,-10.89701 h 5.69224 v 1.12495 h -4.47105 v 3.237354 h 4.33981 v 1.124949 h -4.33981 v 4.282308 h 4.47105 v 1.124949 h -5.69224 z m 11.70697,0 h 2.06741 a 6.0097296,6.0097296 0 0 1 4.28106,1.314941 5.5697494,5.5697494 0 0 1 0.0287,8.210881 5.8747356,5.8747356 0 0 1 -4.33855,1.374938 h -2.03866 z m 2.11116,9.770811 a 4.6247919,4.6247919 0 0 0 3.46484,-1.12495 4.4298007,4.4298007 0 0 0 -0.0575,-6.460959 4.7497863,4.7497863 0 0 0 -3.40734,-1.053703 h -0.88746 v 8.638362 h 0.88746 z"
     inkscape:connector-curvature="0"
     style="fill-rule:evenodd;stroke-width:1.24994373" />
</svg>
